<?xml version="1.0" encoding="UTF-8"?>
<!DOCTYPE svg PUBLIC "-//W3C//DTD SVG 1.1//EN" "http://www.w3.org/Graphics/SVG/1.1/DTD/svg11.dtd">
<!-- Creator: CorelDRAW -->
<svg xmlns="http://www.w3.org/2000/svg" xml:space="preserve" width="2.90205in" height="2.90205in" version="1.1" style="shape-rendering:geometricPrecision; text-rendering:geometricPrecision; image-rendering:optimizeQuality; fill-rule:evenodd; clip-rule:evenodd"
viewBox="0 0 429.24 429.24"
 xmlns:xlink="http://www.w3.org/1999/xlink"
 xmlns:xodm="http://www.corel.com/coreldraw/odm/2003">
 <defs>
  <style type="text/css">
   <![CDATA[
    .fil0 {fill:#F4F2EC}
    .fil3 {fill:#009933;fill-rule:nonzero}
    .fil1 {fill:#009933;fill-rule:nonzero}
    .fil2 {fill:#FFC519;fill-rule:nonzero}
   ]]>
  </style>
 </defs>
 <g id="Layer_x0020_1">
  <metadata id="CorelCorpID_0Corel-Layer"/>
  <rect class="fil0" x="-0" y="-0" width="429.24" height="429.24" rx="58.23" ry="58.23"/>
  <path class="fil1" d="M240.34 309.59c-5.25,0 -10.74,-1.19 -16.51,-3.62 -4.42,-1.91 -8.4,-4.45 -11.9,-7.62 -6.57,-6.02 -10.66,-15.8 -12.29,-29.27 -1.02,-9.67 -1.63,-19.86 -1.8,-30.6l0 -71.44c0,-4.58 -0.58,-8.4 -1.8,-11.49 -1.21,-3.07 -2.79,-5.36 -4.67,-6.9 -1.88,-1.55 -3.87,-2.32 -5.99,-2.32 -3.07,0 -5.88,1.74 -8.4,5.19 -2.54,3.45 -3.89,8.62 -4.06,15.52l0 81.08c-0.11,4.69 -1.33,8.2 -3.65,10.55 -2.32,2.35 -5.08,4.36 -8.31,6.05 -2.43,1.27 -4.81,2.82 -7.1,4.56 -2.29,1.77 -4.31,4.09 -6.02,6.99l0 -109.22c0,-4.58 -0.61,-8.4 -1.82,-11.49 -1.22,-3.07 -2.76,-5.36 -4.64,-6.9 -1.91,-1.55 -3.89,-2.32 -5.99,-2.32 -2.04,0 -4.03,0.77 -5.97,2.32 -1.91,1.55 -3.48,3.84 -4.67,6.9 -1.21,3.09 -1.82,6.9 -1.82,11.49l-0.08 81.08c0,3.23 -0.58,5.85 -1.71,7.84 -1.13,1.99 -2.6,3.65 -4.36,4.97 -1.77,1.33 -3.76,2.6 -5.91,3.78 -2.43,1.27 -4.78,2.82 -7.07,4.56 -2.29,1.77 -4.31,4.09 -6.05,6.99 -0.03,-66.45 -0.08,-101.44 -0.14,-105 -0.11,-5.25 -0.83,-10.96 -2.13,-17.15 -3.18,-15.05 -10.58,-22.84 -22.23,-23.31 -5.25,0 -9.61,1.13 -13.12,3.42 -3.51,2.29 -6.16,5.22 -7.95,8.75 -1.82,3.53 -2.73,7.15 -2.73,10.88 0,4.47 1.35,8.53 4.03,12.18 2.65,3.65 6.71,5.88 12.15,6.74 0.88,0.11 1.74,0.17 2.6,0.17 2.49,0 4.92,-0.5 7.29,-1.49 2.38,-0.99 4.5,-2.51 6.38,-4.58 1.24,2.87 1.88,5.55 1.88,8.04 0,3.45 -0.97,6.46 -2.93,9.09 -1.93,2.62 -4.5,4.67 -7.68,6.1 -3.18,1.46 -6.57,2.18 -10.19,2.18 -3.62,0 -7.21,-0.83 -10.77,-2.49 -3.56,-1.68 -6.68,-4.36 -9.39,-8.06 -2.68,-3.7 -4.64,-8.51 -5.83,-14.44 -0.3,-1.93 -0.47,-3.87 -0.47,-5.83 0,-3.4 0.39,-6.66 1.22,-9.78 2.73,-9.94 8.15,-17.76 16.18,-23.47 8.04,-5.72 16.82,-8.56 26.37,-8.56 7.82,0 15.11,2.02 21.85,6.05 6.96,4.53 12.18,10.47 15.69,17.81 3.34,-2.54 6.66,-4.83 9.94,-6.88 4.06,-2.54 7.57,-5.08 10.58,-7.65 2.98,-2.57 5,-5.55 6.02,-8.95 11.71,8.04 19.39,15.96 23.06,23.81 3.51,-2.71 6.99,-5.14 10.44,-7.29 4.03,-2.54 7.57,-5.08 10.55,-7.65 3.01,-2.57 5,-5.52 6.02,-8.87 8.09,5.61 14.2,11.02 18.25,16.24 4.09,5.19 6.79,10.85 8.17,16.93 1.38,6.1 2.1,13.34 2.15,21.71 0,37.97 0.06,62.39 0.17,73.3 0,7.29 0.19,14.22 0.64,20.88 0.58,9.47 2.68,16.71 6.24,21.68 1.82,2.49 3.92,4.56 6.3,6.27 2.38,1.68 4.69,2.98 6.96,3.84 3.29,1.19 7.79,1.8 13.51,1.8 -0.11,0.52 -0.39,1.13 -0.86,1.77 -0.44,0.64 -1.35,1.35 -2.73,2.1 -1.38,0.75 -3.15,1.46 -5.3,2.1 -2.15,0.66 -4.7,0.97 -7.6,0.97z"/>
  <path class="fil2" d="M257.45 201.98c-1.47,0 -2.82,-0.23 -4.07,-0.71 -2.16,-0.81 -3.65,-2.47 -4.5,-5.01 -1.52,2.76 -3.68,4.52 -6.46,5.3 -1.18,0.28 -2.36,0.42 -3.55,0.42 -1.47,0 -2.82,-0.23 -4.08,-0.71 -1.27,-0.47 -2.28,-1.24 -3.06,-2.26 -1.45,-1.99 -2.17,-4.59 -2.17,-7.82l0 -18.1c0,-2.46 1.14,-4.4 3.4,-5.81l1 -0.55c1.16,-0.61 2.22,-1.26 3.16,-1.95 0.93,-0.71 1.75,-1.68 2.47,-2.93l0 28.57c0,1.1 0.08,2.01 0.25,2.71 0.18,0.72 0.52,1.25 1.05,1.59 0.53,0.34 1.3,0.52 2.32,0.52 1.04,0 1.91,-0.31 2.61,-0.93 0.71,-0.61 1.26,-1.38 1.64,-2.31 0.4,-0.93 0.62,-1.9 0.68,-2.91l0 -16c0,-2.46 1.14,-4.4 3.4,-5.81l0.99 -0.55c1.17,-0.61 2.22,-1.26 3.16,-1.95 0.94,-0.71 1.77,-1.68 2.47,-2.93l0 28.57c0,1.1 0.09,2.01 0.26,2.71 0.17,0.72 0.52,1.25 1.05,1.59 0.53,0.34 1.3,0.52 2.31,0.52 1.04,0 1.91,-0.31 2.63,-0.93 0.71,-0.61 1.26,-1.38 1.64,-2.31 0.39,-0.93 0.62,-1.9 0.68,-2.91l2.9 0c-0.34,2.85 -0.99,5.11 -1.94,6.78 -1.68,3.11 -3.91,5 -6.69,5.69 -1.18,0.28 -2.37,0.42 -3.55,0.42z"/>
  <path id="_1" class="fil2" d="M280.19 201.98c-2.35,0 -4.56,-0.4 -6.63,-1.19 -2.65,-1.13 -4.63,-2.78 -5.98,-4.99 -0.84,-1.38 -1.26,-2.77 -1.26,-4.19 0.02,-1.67 0.43,-3.16 1.24,-4.5 1.07,-1.65 2.66,-2.93 4.74,-3.84 0.56,-0.24 0.95,-0.35 1.17,-0.35 0.1,0 0.15,0.03 0.15,0.12 0,0.09 -0.07,0.24 -0.19,0.45 -0.13,0.22 -0.25,0.46 -0.35,0.75 -0.22,0.47 -0.33,1.06 -0.33,1.78 0,2.02 0.82,3.91 2.46,5.65 1.36,1.26 3.12,2.05 5.3,2.39 0.58,0.09 1.18,0.13 1.78,0.13 1.6,0 3.16,-0.25 4.66,-0.77 0.97,-0.35 1.8,-0.77 2.47,-1.27 0.68,-0.5 1.03,-1.01 1.03,-1.58 -0.04,-0.65 -0.55,-1.3 -1.52,-1.98 -1.22,-0.86 -3.86,-2.26 -7.89,-4.2 -1.33,-0.64 -2.64,-1.29 -3.91,-1.93 -1.9,-0.99 -4.48,-2.39 -7.73,-4.2l0.62 -1.04 3.82 -7.3c2.15,-0.18 4.18,-0.76 6.08,-1.74 1.09,-0.52 2.1,-1.11 2.99,-1.79 0.89,-0.66 1.62,-1.38 2.2,-2.14 0.57,-0.77 1.05,-1.56 1.43,-2.38l0.07 0.13c0.61,0.79 1.09,1.77 1.46,2.91 0.2,0.68 0.29,1.45 0.29,2.26 0,0.71 -0.09,1.42 -0.29,2.13 -0.88,2.42 -2.24,4.26 -4.07,5.53 0.82,0.52 1.81,1.1 2.97,1.74 1.3,0.67 2.71,1.54 4.27,2.63 0.77,0.52 1.5,1.11 2.16,1.81 1.56,1.59 2.33,3.75 2.33,6.46 0,0.93 -0.09,1.86 -0.25,2.81 -0.34,2.38 -1.45,4.59 -3.3,6.62 -0.97,1.04 -2.14,1.97 -3.52,2.81 -2.48,1.51 -5.3,2.26 -8.44,2.26z"/>
  <path id="_2" class="fil2" d="M309.64 201.98c-3.55,0 -6.05,-0.98 -7.49,-2.96 -1.45,-1.98 -2.17,-4.58 -2.17,-7.81l0 -34.99c0,-2.48 1.14,-4.43 3.4,-5.86l1.07 -0.57c1.14,-0.58 2.17,-1.22 3.1,-1.93 0.93,-0.7 1.74,-1.67 2.46,-2.89l0 45.47c0,1.85 0.25,3.12 0.77,3.79 0.52,0.68 1.47,1.03 2.85,1.03 1.4,0 2.54,-0.6 3.41,-1.77 0.87,-1.17 1.38,-2.64 1.53,-4.38l2.91 0c-0.72,5.15 -2.39,8.72 -5.04,10.7 -1.94,1.44 -4.2,2.16 -6.8,2.16z"/>
  <path id="_3" class="fil2" d="M327.81 201.98c-1.47,0 -2.82,-0.23 -4.08,-0.7 -1.27,-0.46 -2.28,-1.21 -3.06,-2.25 -1.42,-1.98 -2.14,-4.59 -2.14,-7.82l0 -18.09c0,-2.5 1.14,-4.43 3.4,-5.81l1.07 -0.62c1.14,-0.58 2.17,-1.22 3.1,-1.92 0.93,-0.71 1.74,-1.67 2.46,-2.9l0 28.57c0,1.1 0.08,2.01 0.25,2.71 0.18,0.72 0.52,1.25 1.04,1.59 0.52,0.34 1.29,0.52 2.33,0.52 1.04,0 1.9,-0.31 2.6,-0.93 0.69,-0.61 1.24,-1.38 1.63,-2.31 0.39,-0.93 0.62,-1.9 0.71,-2.91l2.91 0c-0.39,2.85 -1.04,5.11 -1.94,6.78 -0.77,1.45 -1.72,2.66 -2.85,3.65 -1.81,1.62 -4.29,2.43 -7.44,2.43zm-4.26 -41.14l-7.12 -7.12 7.12 -7.08 7.07 7.08 -7.07 7.12z"/>
  <path id="_4" class="fil2" d="M347.08 196.07c0,1.29 -0.23,2.34 -0.68,3.13 -0.45,0.79 -1.04,1.46 -1.74,1.99 -0.71,0.53 -1.5,1.04 -2.36,1.51 -0.97,0.51 -1.91,1.13 -2.82,1.82 -0.92,0.71 -1.71,1.63 -2.38,2.79l0 -24.88c0,-1.69 0.32,-3.19 0.96,-4.53 0.63,-1.34 1.48,-2.54 2.52,-3.6 1.05,-1.07 2.22,-2.05 3.5,-2.96 1.28,-0.9 2.57,-1.77 3.86,-2.59l1.04 -0.64c1.5,-0.97 2.65,-1.93 3.44,-2.88 0.78,-0.95 1.34,-2.06 1.67,-3.33 4.37,3.02 7.17,6.01 8.4,8.99 1.1,-1.06 2.25,-1.96 3.46,-2.71 1.14,-0.7 2.18,-1.5 3.13,-2.43 0.95,-0.93 1.65,-2.21 2.13,-3.85 4.05,2.8 6.73,5.56 8.03,8.26 1.3,2.7 1.95,6.07 1.95,10.09 0.04,2.03 0.07,4.06 0.07,6.11l0 4.07c0,1.1 0.09,2.01 0.26,2.71 0.17,0.72 0.52,1.25 1.04,1.59 0.51,0.34 1.29,0.52 2.33,0.52 1.03,0 1.9,-0.31 2.59,-0.93 0.71,-0.61 1.25,-1.38 1.63,-2.31 0.39,-0.93 0.63,-1.9 0.72,-2.91l2.9 0c-0.39,2.85 -1.03,5.11 -1.93,6.78 -0.78,1.45 -1.72,2.67 -2.84,3.65 -1.1,0.99 -2.39,1.67 -3.86,2.01 -1.2,0.28 -2.4,0.42 -3.59,0.42 -1.47,0 -2.82,-0.23 -4.09,-0.7 -1.26,-0.46 -2.27,-1.21 -3.04,-2.25 -1.42,-1.98 -2.14,-4.59 -2.14,-7.82l0 -13.18c0,-1.01 -0.18,-2 -0.55,-2.97 -0.36,-0.97 -0.95,-1.77 -1.74,-2.36 -0.41,-0.29 -0.83,-0.42 -1.26,-0.42 -0.36,0 -0.73,0.1 -1.1,0.32 -0.84,0.61 -1.45,1.4 -1.82,2.39 -0.38,0.99 -0.56,2 -0.56,3.03l0 18.04c0,1.29 -0.23,2.34 -0.68,3.13 -0.45,0.79 -1.04,1.46 -1.74,1.99 -0.72,0.53 -1.5,1.04 -2.36,1.51 -0.97,0.51 -1.91,1.13 -2.82,1.82 -0.92,0.71 -1.74,1.63 -2.48,2.79l0 -29.28c0,-1.01 -0.18,-2 -0.54,-2.97 -0.38,-0.97 -0.95,-1.77 -1.75,-2.36 -0.41,-0.29 -0.83,-0.42 -1.26,-0.42 -0.36,0 -0.72,0.1 -1.07,0.32 -0.84,0.61 -1.45,1.4 -1.82,2.39 -0.38,0.99 -0.56,2 -0.56,3.03l0 18.04z"/>
  <path class="fil3" d="M247.6 292.18c-1.27,-0.91 -2.4,-1.78 -3.43,-2.62 -1.42,-1.24 -2.47,-2.55 -3.13,-3.91 -0.67,-1.36 -1,-2.69 -1,-3.98 0,-1.94 0.67,-3.59 2,-4.95 1.33,-1.36 3.18,-2.06 5.54,-2.06 0,1.27 0.25,2.47 0.77,3.63 0.51,1.15 1.34,2.02 2.45,2.61 0.66,0.35 1.34,0.53 2.03,0.53 0.63,0 1.31,-0.18 2.03,-0.53 1.12,-0.59 1.94,-1.46 2.44,-2.61 0.5,-1.16 0.75,-2.37 0.75,-3.63 0,-0.88 0.01,-1.83 0.04,-2.83 0.02,-1 0.04,-2.03 0.04,-3.08l0 -2.34c-2.85,2.59 -6.12,3.89 -9.82,3.89 -2.28,0 -4.57,-0.57 -6.86,-1.71 -2.16,-1.17 -4.06,-2.77 -5.67,-4.81 -1.03,-1.33 -1.79,-2.86 -2.3,-4.58 -0.5,-1.73 -0.83,-3.65 -0.97,-5.75 -0.14,-2.1 -0.2,-4.38 -0.2,-6.83l0.04 -9.74c0,-5.44 1.73,-9.92 5.21,-13.45 1.54,-1.57 3.23,-2.92 5.05,-4.05 1.82,-1.15 3.62,-2.19 5.39,-3.12 2.15,-1.1 4.01,-2.21 5.57,-3.34 1.57,-1.11 2.57,-2.42 3.01,-3.89 7.1,4.9 10.64,9.48 10.64,13.74 0,1.57 -0.38,3.04 -1.15,4.41 -0.78,1.37 -1.84,2.49 -3.23,3.35 -1.37,0.85 -2.95,1.28 -4.72,1.28l0 -2.43c0,-1.79 -0.37,-3.51 -1.09,-5.16 -0.73,-1.64 -1.89,-2.87 -3.5,-3.69 -0.98,-0.49 -1.94,-0.73 -2.87,-0.73 -0.93,0 -1.9,0.24 -2.91,0.73 -1.59,0.83 -2.75,2.06 -3.47,3.69 -0.73,1.65 -1.09,3.37 -1.09,5.16l0 15.17c0,1.82 0.05,3.71 0.13,5.64 0.22,4.46 1.16,7.82 2.85,10.08 1.35,1.85 3.2,2.77 5.57,2.77 1.6,0 3.03,-0.56 4.23,-1.66 1.22,-1.11 1.89,-2.61 2.03,-4.47 0.07,-0.86 0.11,-1.76 0.11,-2.69l0 -4.66c0,-2.71 1.22,-4.81 3.67,-6.3l1.16 -0.67c1.24,-0.63 2.36,-1.33 3.36,-2.08 1,-0.77 1.9,-1.81 2.67,-3.14l0 30.37c0,2.67 -0.43,4.95 -1.28,6.87 -0.85,1.91 -1.95,3.55 -3.31,4.91 -1.35,1.36 -2.83,2.56 -4.45,3.57 -1.61,1.02 -3.19,1.94 -4.76,2.75 -1.9,0.96 -3.53,1.92 -4.9,2.91 -1.39,0.98 -2.27,2.13 -2.67,3.43z"/>
  <path id="_1_0" class="fil3" d="M289 271.03c-1.78,0 -3.48,-0.31 -5.09,-0.91 -1.63,-0.61 -3.1,-1.61 -4.42,-3.01 -1.31,-1.41 -2.27,-2.88 -2.85,-4.44 -0.59,-1.55 -0.94,-3.16 -1.08,-4.82 -0.12,-1.65 -0.19,-3.36 -0.19,-5.11l0 -0.78c0,-2.67 0.42,-4.95 1.27,-6.86 0.84,-1.91 1.94,-3.56 3.31,-4.93 1.36,-1.36 2.85,-2.56 4.45,-3.57 1.59,-1.02 3.18,-1.92 4.75,-2.75 1.87,-0.96 3.49,-1.92 4.87,-2.91 1.37,-0.98 2.26,-2.12 2.65,-3.43 3.08,2.15 5.4,4.21 6.95,6.18 1.53,1.97 2.57,4.11 3.1,6.43 0.53,2.31 0.8,5.06 0.82,8.23l0 0.63c0,3.34 -0.48,6.5 -1.42,9.49 -0.94,2.99 -2.45,5.54 -4.5,7.65 -2.06,2.12 -4.73,3.56 -8.02,4.36 -1.47,0.35 -3,0.53 -4.59,0.53zm2.49 -7.22c0.93,0 1.82,-0.39 2.67,-1.18 0.84,-0.8 1.48,-1.98 1.93,-3.57 0.42,-1.69 0.62,-4.04 0.62,-7.08l0 -6.97c0,-1.24 -0.25,-2.44 -0.77,-3.61 -0.51,-1.16 -1.33,-2.03 -2.45,-2.59 -0.71,-0.35 -1.37,-0.53 -2.03,-0.53 -0.66,0 -1.33,0.18 -2.03,0.53 -1.12,0.56 -1.94,1.43 -2.44,2.59 -0.5,1.17 -0.75,2.37 -0.75,3.61l0 6.97c0,1.12 0.04,2.31 0.11,3.55 0.07,1.25 0.25,2.43 0.53,3.53 0.44,1.59 1.09,2.77 1.93,3.57 0.85,0.79 1.75,1.18 2.7,1.18z"/>
 </g>
</svg>
